HIERARCHY
ROOT Hips
{
	OFFSET 0.000000 0.000000 0.000000 
	CHANNELS 6 Xposition Yposition Zposition Zrotation Yrotation Xrotation
	JOINT LeftUpLeg
	{
		OFFSET 1.363060 -1.794630 0.839290 
		CHANNELS 3 Zrotation Yrotation Xrotation
		JOINT LeftLeg
		{
			OFFSET 2.448110 -6.726130 0.000000 
			CHANNELS 3 Zrotation Yrotation Xrotation
			JOINT LeftFoot
			{
				OFFSET 2.562200 -7.039590 0.000000 
				CHANNELS 3 Zrotation Yrotation Xrotation
				JOINT LeftToeBase
				{
					OFFSET 0.157640 -0.433110 2.322550 
					CHANNELS 3 Zrotation Yrotation Xrotation
					End Site
					{
						OFFSET 0.000000 0.000000 0.000000 
					}
				}
			}
		}
	}
	JOINT RightUpLeg
	{
		OFFSET -1.305520 -1.794630 0.839290 
		CHANNELS 3 Zrotation Yrotation Xrotation
		JOINT RightLeg
		{
			OFFSET -2.542530 -6.985550 0.000000 
			CHANNELS 3 Zrotation Yrotation Xrotation
			JOINT RightFoot
			{
				OFFSET -2.568260 -7.056230 0.000000 
				CHANNELS 3 Zrotation Yrotation Xrotation
				JOINT RightToeBase
				{
					OFFSET -0.164730 -0.452590 2.363150 
					CHANNELS 3 Zrotation Yrotation Xrotation
					End Site
					{
						OFFSET 0.000000 0.000000 0.000000 
					}
				}
			}
		}
	}
	JOINT Spine
	{
		OFFSET 0.028270 2.035590 -0.193380 
		CHANNELS 3 Zrotation Yrotation Xrotation
		JOINT Spine1
		{
			OFFSET 0.056720 2.048850 -0.042750 
			CHANNELS 3 Zrotation Yrotation Xrotation
			JOINT Neck1
			{
				OFFSET -0.054170 1.746240 0.172020 
				CHANNELS 3 Zrotation Yrotation Xrotation
				JOINT Head
				{
					OFFSET 0.104070 1.761360 -0.123970 
					CHANNELS 3 Zrotation Yrotation Xrotation
					End Site
					{
						OFFSET 0.000000 0.000000 0.000000 
					}
				}
			}
			JOINT LeftArm
			{
				OFFSET 3.362410 1.200890 -0.311210 
				CHANNELS 3 Zrotation Yrotation Xrotation
				JOINT LeftForeArm
				{
					OFFSET 4.983000 -0.000000 -0.000000 
					CHANNELS 3 Zrotation Yrotation Xrotation
					JOINT LeftHand
					{
						OFFSET 3.483560 -0.000000 -0.000000 
						CHANNELS 3 Zrotation Yrotation Xrotation
						JOINT LeftHandIndex1
						{
							OFFSET 0.715260 -0.000000 -0.000000 
							CHANNELS 3 Zrotation Yrotation Xrotation
							End Site
							{
								OFFSET 0.000000 0.000000 0.000000 
							}
						}
					}
				}
			}
			JOINT RightArm
			{
				OFFSET -3.136600 1.374050 -0.404650 
				CHANNELS 3 Zrotation Yrotation Xrotation
				JOINT RightForeArm
				{
					OFFSET -5.241900 -0.000000 -0.000000 
					CHANNELS 3 Zrotation Yrotation Xrotation
					JOINT RightHand
					{
						OFFSET -3.444170 -0.000000 -0.000000 
						CHANNELS 3 Zrotation Yrotation Xrotation
						JOINT RightHandIndex1
						{
							OFFSET -0.622530 -0.000000 -0.000000 
							CHANNELS 3 Zrotation Yrotation Xrotation
							End Site
							{
								OFFSET 0.000000 0.000000 0.000000 
							}
						}
					}
				}
			}
		}
	}
}
MOTION
Frames: 10
Frame Time: 0.041667
10.204509 17.859069 49.383224 -178.426437 -5.311240 178.696599 -18.094602 -23.903306 -1.186095 -2.451331 8.273054 23.500462 -4.416368 14.075891 -5.296528 2.298100 -9.461200 -27.248800 24.107583 14.193119 -2.438978 1.886562 -8.378706 26.125507 6.327554 -23.317694 -18.368248 -0.083000 -1.858800 5.115500 -2.196694 4.397683 1.625888 -8.345532 1.323880 -10.375029 4.188572 21.084228 10.014833 -1.654200 10.964500 4.690400 -85.656327 8.301360 37.634088 25.111998 -25.111920 -7.110337 1.464289 1.015126 9.559925 -7.125000 0.000000 0.000000 91.485192 -9.204342 43.441186 -20.094802 22.915047 -5.694951 1.197628 0.414274 17.588418 7.125000 0.000000 0.000000 
10.204509 17.855887 49.383224 -178.456525 -5.377329 178.610538 -18.193049 -23.876024 -1.128584 -2.445714 8.272159 23.518048 -4.431035 14.109663 -5.264491 2.497500 -9.833400 -28.439000 24.049098 14.157013 -2.398660 1.879935 -8.380125 26.143578 6.395941 -23.508882 -18.411963 -0.074800 -1.764200 4.854500 -1.583700 4.074675 1.979570 -8.022865 1.206654 -10.362018 4.368465 21.407783 10.109008 -1.458300 11.110300 4.705000 -86.143086 8.072654 37.078293 25.109248 -25.103632 -7.114059 1.455872 1.029233 9.336653 -7.125000 0.000000 0.000000 90.671304 -9.131470 44.451580 -20.369897 23.208495 -5.779042 1.216067 0.371892 17.380140 7.125000 0.000000 0.000000 
10.203095 17.857773 49.379807 -178.310592 -5.348291 178.624021 -18.173041 -23.879084 -1.172524 -2.433310 8.265716 23.553946 -4.464630 14.172283 -5.295427 2.761400 -10.298500 -29.948700 23.996107 14.160429 -2.521225 1.885724 -8.382332 26.103323 6.372202 -23.393270 -18.255692 -0.072200 -1.733400 4.769500 0.746712 3.188705 2.579307 -7.170554 0.878183 -10.227307 4.746149 22.528659 10.075734 -0.975800 11.589600 4.534600 -88.424014 7.518104 33.857107 25.007979 -24.969299 -7.049126 1.487585 1.018976 10.137056 -7.125000 0.000000 0.000000 88.058518 -8.808258 47.485656 -20.494458 23.321898 -5.868976 1.225068 0.345749 16.588265 7.125000 0.000000 0.000000 
10.201445 17.855062 49.376743 -178.229889 -5.377329 178.566073 -18.125656 -23.939634 -1.095076 -2.431789 8.260881 23.550763 -4.466899 14.172556 -5.278910 2.855300 -10.457100 -30.470000 24.080545 14.090895 -2.485977 1.876209 -8.389519 26.146198 6.263242 -23.097657 -18.217112 -0.085600 -1.887000 5.193300 0.854938 3.153333 2.605304 -7.219788 0.852370 -10.235941 4.841189 22.546399 10.167307 -0.930800 11.604700 4.541200 -88.529611 7.551736 33.851812 25.025436 -24.982170 -7.051895 1.485535 1.012843 10.108885 -7.125000 0.000000 0.000000 88.029475 -8.666698 47.508488 -20.233239 23.004608 -5.757246 1.237044 0.339671 16.697251 7.125000 0.000000 0.000000 
10.201916 17.855062 49.375093 -178.210960 -5.332089 178.629259 -18.089479 -23.991040 -1.112400 -2.440912 8.246090 23.507639 -4.467636 14.171097 -5.299737 2.824900 -10.406100 -30.302200 24.079277 14.153032 -2.556910 1.867510 -8.410848 26.181807 6.236168 -22.996044 -18.110487 -0.104000 -2.079700 5.725800 0.951975 3.172118 2.546255 -7.188335 0.862977 -10.218245 4.755141 22.553541 10.115161 -0.969200 11.602400 4.518100 -88.605346 7.532654 33.845210 24.970568 -24.921894 -7.029350 1.489350 1.017357 10.116772 -7.125000 0.000000 0.000000 87.993588 -8.665507 47.465962 -20.193051 22.953612 -5.739192 1.238951 0.336943 16.790515 7.125000 0.000000 0.000000 
10.201445 17.849760 49.373090 -178.415222 -5.392461 178.482044 -18.392386 -24.020979 -0.881745 -2.450901 8.233907 23.495952 -4.427458 14.096301 -5.433574 2.762300 -10.300000 -29.953800 23.870564 14.010809 -2.477570 1.841985 -8.420021 26.269095 6.194151 -22.871005 -18.160315 -0.106300 -2.102500 5.789000 0.907392 3.141481 2.657249 -7.075823 0.868556 -10.297476 4.622101 22.538081 9.964771 -1.031200 11.580500 4.466100 -88.653847 7.465147 33.842786 24.887084 -24.837971 -6.998497 1.489273 1.031331 10.178128 -7.125000 0.000000 0.000000 87.902484 -8.834393 47.460198 -20.434781 23.252487 -5.849287 1.224845 0.344797 16.690345 7.125000 0.000000 0.000000 
10.201209 17.851999 49.371440 -178.560583 -5.343506 178.575270 -18.497511 -23.971615 -0.933216 -2.466417 8.219693 23.442408 -4.440460 14.137061 -5.490616 2.768100 -10.309800 -29.985900 23.673128 13.948109 -2.639624 1.828646 -8.442747 26.323938 6.151290 -22.729271 -18.157787 -0.080800 -1.833600 5.046100 0.674643 3.182600 2.661383 -7.094445 0.892102 -10.253740 4.720626 22.499052 9.994167 -0.991500 11.565400 4.478900 -88.526751 7.402934 33.921839 24.876113 -24.829964 -6.999030 1.474630 1.049853 10.157395 -7.125000 0.000000 0.000000 87.999222 -8.880235 47.359110 -20.559520 23.409159 -5.912921 1.214893 0.356117 16.545140 7.125000 0.000000 0.000000 
10.201327 17.851410 49.368023 -178.511837 -5.374524 178.492396 -18.520240 -24.155250 -0.732839 -2.477080 8.200954 23.395863 -4.531213 14.354098 -5.578698 2.759200 -10.294700 -29.936300 23.752076 13.919088 -2.573652 1.823068 -8.455194 26.380348 6.155317 -22.807547 -18.352331 -0.061000 -1.593000 4.382200 0.690407 3.202456 2.771908 -7.109083 0.899527 -10.254676 4.800683 22.441078 10.102265 -0.945400 11.543800 4.521300 -88.494016 7.386924 33.992299 24.909917 -24.872251 -7.021409 1.473717 1.051236 10.127514 -7.125000 0.000000 0.000000 88.068274 -8.917617 47.167397 -20.587656 23.439475 -5.917023 1.216387 0.352556 16.588066 7.125000 0.000000 0.000000 
10.201092 17.852117 49.364370 -178.483398 -5.312032 178.560344 -18.515655 -24.380625 -0.650682 -2.487051 8.190957 23.357019 -4.623539 14.576480 -5.690703 2.830300 -10.415100 -30.331800 23.764774 13.971022 -2.620604 1.831416 -8.456559 26.366132 6.145077 -22.799846 -18.419279 -0.058900 -1.566200 4.308300 0.607533 3.221437 2.736437 -7.161901 0.901302 -10.206578 4.833368 22.438353 10.107335 -0.937100 11.545300 4.526800 -88.386191 7.443932 34.060644 24.953282 -24.920522 -7.040365 1.486605 1.036286 10.032513 -7.125000 0.000000 0.000000 88.166949 -8.943740 47.085725 -20.583788 23.426614 -5.905474 1.221021 0.343681 16.795365 7.125000 0.000000 0.000000 
10.202152 17.850231 49.362721 -178.433287 -5.274162 178.538770 -18.431649 -24.142103 -0.769715 -2.478047 8.198130 23.387029 -4.557797 14.411711 -5.583307 2.816300 -10.391500 -30.254100 23.822292 14.035743 -2.558197 1.834432 -8.447490 26.345877 6.104198 -22.673812 -18.343911 -0.072200 -1.733200 4.768900 0.795068 3.218292 2.732395 -7.095671 0.907339 -10.214050 4.726264 22.488785 10.026201 -0.979500 11.561400 4.494400 -88.485528 7.444567 34.010135 24.924633 -24.883713 -7.023212 1.493412 1.030463 10.049067 -7.125000 0.000000 0.000000 88.074141 -8.920440 47.123478 -20.467769 23.286807 -5.857635 1.226860 0.337597 16.874846 7.125000 0.000000 0.000000 
